<svg width="147" height="108" viewBox="0 0 147 108" fill="none" xmlns="http://www.w3.org/2000/svg">
<g filter="url(#filter0_d_102_47)">
<path d="M105.948 35.6185C107.229 35.5544 108.511 35.7375 109.723 36.1578L111.126 36.6441C117.76 38.9442 120.02 47.1854 115.487 52.5477L115.154 52.9419C113.607 54.7727 111.453 55.9868 109.085 56.3628L36.7466 67.8519C31.8892 68.6234 27.398 65.1097 26.978 60.2093V60.2093C26.5788 55.5522 30.0274 51.4519 34.6841 51.047L46.8605 49.9882C48.4347 49.8513 49.9541 49.3432 51.2941 48.5057L57.2555 44.7799L65.7555 40.7799L70.8788 38.2182C72.1165 37.5994 73.4691 37.2442 74.8511 37.175L105.948 35.6185Z" fill="#B2F2FF" fill-opacity="0.42" shape-rendering="crispEdges"/>
</g>
<path d="M37.2755 47.3014C37.7822 47.3814 38.2422 47.5881 38.6555 47.9214C39.0822 48.2548 39.4155 48.6681 39.6555 49.1614C39.9088 49.6548 40.0355 50.1814 40.0355 50.7414C40.0355 51.4481 39.8555 52.0881 39.4955 52.6614C39.1355 53.2214 38.6088 53.6681 37.9155 54.0014C37.2355 54.3214 36.4288 54.4814 35.4955 54.4814H30.2955V40.5414H35.2955C36.2422 40.5414 37.0488 40.7014 37.7155 41.0214C38.3822 41.3281 38.8822 41.7481 39.2155 42.2814C39.5488 42.8148 39.7155 43.4148 39.7155 44.0814C39.7155 44.9081 39.4888 45.5948 39.0355 46.1414C38.5955 46.6748 38.0088 47.0614 37.2755 47.3014ZM32.1155 46.5614H35.1755C36.0288 46.5614 36.6888 46.3614 37.1555 45.9614C37.6222 45.5614 37.8555 45.0081 37.8555 44.3014C37.8555 43.5948 37.6222 43.0414 37.1555 42.6414C36.6888 42.2414 36.0155 42.0414 35.1355 42.0414H32.1155V46.5614ZM35.3355 52.9814C36.2422 52.9814 36.9488 52.7681 37.4555 52.3414C37.9622 51.9148 38.2155 51.3214 38.2155 50.5614C38.2155 49.7881 37.9488 49.1814 37.4155 48.7414C36.8822 48.2881 36.1688 48.0614 35.2755 48.0614H32.1155V52.9814H35.3355ZM52.2811 43.5214V54.4814H50.4611V52.8614C50.1145 53.4214 49.6278 53.8614 49.0011 54.1814C48.3878 54.4881 47.7078 54.6414 46.9611 54.6414C46.1078 54.6414 45.3411 54.4681 44.6611 54.1214C43.9811 53.7614 43.4411 53.2281 43.0411 52.5214C42.6545 51.8148 42.4611 50.9548 42.4611 49.9414V43.5214H44.2611V49.7014C44.2611 50.7814 44.5345 51.6148 45.0811 52.2014C45.6278 52.7748 46.3745 53.0614 47.3211 53.0614C48.2945 53.0614 49.0611 52.7614 49.6211 52.1614C50.1811 51.5614 50.4611 50.6881 50.4611 49.5414V43.5214H52.2811ZM54.6741 48.9614C54.6741 47.8414 54.9008 46.8614 55.3541 46.0214C55.8074 45.1681 56.4274 44.5081 57.2141 44.0414C58.0141 43.5748 58.9074 43.3414 59.8941 43.3414C60.7474 43.3414 61.5408 43.5414 62.2741 43.9414C63.0074 44.3281 63.5674 44.8414 63.9541 45.4814V39.6814H65.7941V54.4814H63.9541V52.4214C63.5941 53.0748 63.0608 53.6148 62.3541 54.0414C61.6474 54.4548 60.8208 54.6614 59.8741 54.6614C58.9008 54.6614 58.0141 54.4214 57.2141 53.9414C56.4274 53.4614 55.8074 52.7881 55.3541 51.9214C54.9008 51.0548 54.6741 50.0681 54.6741 48.9614ZM63.9541 48.9814C63.9541 48.1548 63.7874 47.4348 63.4541 46.8214C63.1208 46.2081 62.6674 45.7414 62.0941 45.4214C61.5341 45.0881 60.9141 44.9214 60.2341 44.9214C59.5541 44.9214 58.9341 45.0814 58.3741 45.4014C57.8141 45.7214 57.3674 46.1881 57.0341 46.8014C56.7008 47.4148 56.5341 48.1348 56.5341 48.9614C56.5341 49.8014 56.7008 50.5348 57.0341 51.1614C57.3674 51.7748 57.8141 52.2481 58.3741 52.5814C58.9341 52.9014 59.5541 53.0614 60.2341 53.0614C60.9141 53.0614 61.5341 52.9014 62.0941 52.5814C62.6674 52.2481 63.1208 51.7748 63.4541 51.1614C63.7874 50.5348 63.9541 49.8081 63.9541 48.9814Z" fill="#00B4D8"/>
<path d="M73.8497 47.3014C74.3564 47.3814 74.8164 47.5881 75.2297 47.9214C75.6564 48.2548 75.9897 48.6681 76.2297 49.1614C76.483 49.6548 76.6097 50.1814 76.6097 50.7414C76.6097 51.4481 76.4297 52.0881 76.0697 52.6614C75.7097 53.2214 75.183 53.6681 74.4897 54.0014C73.8097 54.3214 73.003 54.4814 72.0697 54.4814H66.8697V40.5414H71.8697C72.8164 40.5414 73.623 40.7014 74.2897 41.0214C74.9564 41.3281 75.4564 41.7481 75.7897 42.2814C76.123 42.8148 76.2897 43.4148 76.2897 44.0814C76.2897 44.9081 76.063 45.5948 75.6097 46.1414C75.1697 46.6748 74.583 47.0614 73.8497 47.3014ZM68.6897 46.5614H71.7497C72.603 46.5614 73.263 46.3614 73.7297 45.9614C74.1964 45.5614 74.4297 45.0081 74.4297 44.3014C74.4297 43.5948 74.1964 43.0414 73.7297 42.6414C73.263 42.2414 72.5897 42.0414 71.7097 42.0414H68.6897V46.5614ZM71.9097 52.9814C72.8164 52.9814 73.523 52.7681 74.0297 52.3414C74.5364 51.9148 74.7897 51.3214 74.7897 50.5614C74.7897 49.7881 74.523 49.1814 73.9897 48.7414C73.4564 48.2881 72.743 48.0614 71.8497 48.0614H68.6897V52.9814H71.9097ZM76.4553 48.9614C76.4553 47.8414 76.682 46.8614 77.1353 46.0214C77.5887 45.1681 78.2087 44.5081 78.9953 44.0414C79.7953 43.5748 80.682 43.3414 81.6553 43.3414C82.6153 43.3414 83.4487 43.5481 84.1553 43.9614C84.862 44.3748 85.3887 44.8948 85.7353 45.5214V43.5214H87.5753V54.4814H85.7353V52.4414C85.3753 53.0814 84.8353 53.6148 84.1153 54.0414C83.4087 54.4548 82.582 54.6614 81.6353 54.6614C80.662 54.6614 79.782 54.4214 78.9953 53.9414C78.2087 53.4614 77.5887 52.7881 77.1353 51.9214C76.682 51.0548 76.4553 50.0681 76.4553 48.9614ZM85.7353 48.9814C85.7353 48.1548 85.5687 47.4348 85.2353 46.8214C84.902 46.2081 84.4487 45.7414 83.8753 45.4214C83.3153 45.0881 82.6953 44.9214 82.0153 44.9214C81.3353 44.9214 80.7153 45.0814 80.1553 45.4014C79.5953 45.7214 79.1487 46.1881 78.8153 46.8014C78.482 47.4148 78.3153 48.1348 78.3153 48.9614C78.3153 49.8014 78.482 50.5348 78.8153 51.1614C79.1487 51.7748 79.5953 52.2481 80.1553 52.5814C80.7153 52.9014 81.3353 53.0614 82.0153 53.0614C82.6953 53.0614 83.3153 52.9014 83.8753 52.5814C84.4487 52.2481 84.902 51.7748 85.2353 51.1614C85.5687 50.5348 85.7353 49.8081 85.7353 48.9814ZM95.991 43.3214C97.3243 43.3214 98.4043 43.7281 99.231 44.5414C100.058 45.3414 100.471 46.5014 100.471 48.0214V54.4814H98.671V48.2814C98.671 47.1881 98.3976 46.3548 97.851 45.7814C97.3043 45.1948 96.5576 44.9014 95.611 44.9014C94.651 44.9014 93.8843 45.2014 93.311 45.8014C92.751 46.4014 92.471 47.2748 92.471 48.4214V54.4814H90.651V43.5214H92.471V45.0814C92.831 44.5214 93.3176 44.0881 93.931 43.7814C94.5576 43.4748 95.2443 43.3214 95.991 43.3214ZM109.564 54.4814L105.264 49.6414V54.4814H103.444V39.6814H105.264V48.3814L109.484 43.5214H112.024L106.864 48.9814L112.044 54.4814H109.564Z" fill="#0077B6"/>
<defs>
<filter id="filter0_d_102_47" x="22.9465" y="35.606" width="98.9081" height="40.3523" filterUnits="userSpaceOnUse" color-interpolation-filters="sRGB">
<feFlood flood-opacity="0" result="BackgroundImageFix"/>
<feColorMatrix in="SourceAlpha" type="matrix" values="0 0 0 0 0 0 0 0 0 0 0 0 0 0 0 0 0 0 127 0" result="hardAlpha"/>
<feOffset dy="4"/>
<feGaussianBlur stdDeviation="2"/>
<feComposite in2="hardAlpha" operator="out"/>
<feColorMatrix type="matrix" values="0 0 0 0 0 0 0 0 0 0 0 0 0 0 0 0 0 0 0.25 0"/>
<feBlend mode="normal" in2="BackgroundImageFix" result="effect1_dropShadow_102_47"/>
<feBlend mode="normal" in="SourceGraphic" in2="effect1_dropShadow_102_47" result="shape"/>
</filter>
</defs>
</svg>
